<?xml version="1.0" encoding="utf-8"?>
<!-- Generator: Adobe Illustrator 26.0.0, SVG Export Plug-In . SVG Version: 6.00 Build 0)  -->
<svg version="1.1" id="Layer_1" xmlns="http://www.w3.org/2000/svg" xmlns:xlink="http://www.w3.org/1999/xlink" x="0px" y="0px"
	 viewBox="0 0 1039.2 569.4" style="enable-background:new 0 0 1039.2 569.4;" xml:space="preserve">
<style type="text/css">
	.st0{opacity:0.13;}
	.st1{fill:#C1BDB2;}
	.st2{fill:#B3DAC9;}
	.st3{fill:#FFFFFF;}
	.st4{fill:#02B4A2;}
	.st5{fill:#00897B;}
	.st6{fill:#E0AB6C;}
	.st7{fill:#F3D1A4;}
	.st8{fill:#FF9670;}
	.st9{fill:#602B29;}
	.st10{fill:#400E09;}
	.st11{fill:#FC7F51;}
	.st12{fill:#DB5230;}
	.st13{fill:#2D0E0B;}
	.st14{fill:#F46E45;}
	.st15{fill:#E53E3E;}
	.st16{fill:#EF7926;}
	.st17{fill:#E26A1A;}
	.st18{fill:#8969E2;}
	.st19{fill:#7359D1;}
	.st20{fill:#A694EA;}
	.st21{opacity:0.5;}
	.st22{fill:#00665C;}
</style>
<g>
	<g class="st0">
		<path class="st1" d="M402.4,565.1l227.7-3.1c39.3,0.1,78.1-28.6,101.8-72.9c23.7-44.3,32.2-102.9,24.4-156.5
			c-7.7-53.7-31.2-101.9-63-133.7c-19.6-19.6-42.6-33.2-66.7-37c-24.1-3.6-49.4,3.1-70,21.2c-36,31.5-55.5,93.6-94.1,118.4
			c-18,11.6-38.1,13.6-57.2,20.7c-37.5,14-73.3,54.4-78.2,108c-3.6,39.3,5.5,68.7,24.4,99.6C367.3,555.6,379.6,568.1,402.4,565.1"/>
	</g>
	<g>
		<path class="st2" d="M719.9,558.4c0,6.3-93.7,11.5-209.3,11.5s-209.3-5.2-209.3-11.5c0-6.3,93.7-11.5,209.3-11.5
			S719.9,552.1,719.9,558.4z"/>
		<g>
			<g>
				<g>
					<path class="st2" d="M589.1,528.9c6.6-13.7,14.7-27,26.6-36.4c4.6-3.6,9.7-6.6,15.5-7.6c5.7-1,12,0.3,16.2,4.2
						c0.8,0.8,1.7,1.6,2.8,1.5c0.7-0.1,1.3-0.6,1.8-1.1c7.5-6.3,16.5-10.4,25.8-13.8c19.1-7,40.3-10.9,59.6-4.4
						c8.3,2.8,16.6,8.3,18.8,16.9c2.1,8.5-2.6,17.2-8.5,23.6c-9.7,10.6-22.9,17.7-36.7,21.8c-13.8,4.2-28.2,5.7-42.6,6.7
						C643.6,542.3,612.6,537.7,589.1,528.9"/>
				</g>
				<g>
					<g>
						<path class="st3" d="M595.7,526.6c9.9-1.2,19.9-2.5,29.7-3.9c9.8-1.4,19.8-3,29.5-4.9c9.7-1.9,19.5-4.1,29-6.8
							c9.6-2.7,18.8-5.9,28.2-9.1c9.3-3.2,18.6-6.1,28.2-8.2c1.1-0.3,2.4-0.5,3.5-0.7c0.8-0.2,0.7-1.4-0.1-1.2
							c-9.6,1.8-19,4.6-28.3,7.6c-9.4,3.1-18.6,6.4-28.1,9.2c-9.6,2.8-19.3,5.2-29,7.1c-9.8,2-19.7,3.6-29.6,5.1
							c-9.9,1.4-19.8,2.8-29.7,4c-1.2,0.2-2.4,0.3-3.6,0.5C594.9,525.5,595,526.7,595.7,526.6L595.7,526.6z"/>
					</g>
					<g>
						<path class="st3" d="M617.5,523.5c6-3.1,12-6,18-9.1c6-3.1,12.1-6.1,18.1-9.2c3.3-1.7,6.7-3.3,10-5.1c0.3-0.2,0.4-0.6,0.2-0.9
							c-0.2-0.3-0.6-0.3-0.9-0.2c-6,3.1-12,6-18,9.1c-6,3.1-12.1,6.1-18.1,9.2c-3.3,1.7-6.7,3.3-10,5.1c-0.3,0.2-0.4,0.6-0.2,0.9
							C616.8,523.7,617.1,523.7,617.5,523.5L617.5,523.5z"/>
					</g>
					<g>
						<path class="st3" d="M658.5,517.1c6.6,1.4,13.3,3.2,19.9,4.8c6.8,1.7,13.6,3.4,20.4,5.1c3.6,0.9,7.3,1.7,10.9,2.6
							c0.8,0.2,1.1-1.1,0.2-1.2c-6.6-1.4-13.3-3.2-19.9-4.8c-6.8-1.7-13.6-3.4-20.4-5.1c-3.6-0.9-7.3-1.7-10.9-2.6
							C657.9,515.7,657.6,516.9,658.5,517.1L658.5,517.1z"/>
					</g>
					<g>
						<path class="st3" d="M696.1,507.3c6-5.8,12.7-11.1,20-15.4c1.9-1.1,3.9-2.3,6-3.2c0.3-0.2,0.5-0.5,0.4-0.8
							c-0.1-0.3-0.5-0.6-0.8-0.4c-7.7,3.7-14.7,8.8-21.2,14.3c-1.8,1.5-3.5,3.1-5.3,4.7c-0.3,0.2-0.2,0.7,0.1,0.9
							C695.4,507.6,695.8,507.5,696.1,507.3L696.1,507.3z"/>
					</g>
				</g>
			</g>
			<g>
				<g>
					<path class="st4" d="M588.7,493.5c-4.4-12.5-5.2-26.3-2-39.2c1.5-6.2,3.9-12.2,7.9-17.2c4-5,9.7-8.7,16-9.5c1-0.1,2-0.2,2.5-1
						c0.4-0.6,0.5-1.2,0.5-1.9c1.1-17.7,13-32.7,25.7-45c5.8-5.6,11.9-11.1,19.1-15c7.2-3.9,15.4-6.1,23.4-5
						c4.7,0.7,9.3,2.5,13.4,4.9c3.8,2.3,7.4,5.2,9.7,9c2.9,4.8,3.2,10.8,2,16.2c-1.2,5.4-3.9,10.4-7.1,15.1
						c-4.5,6.6-9.8,12.5-15.9,17.7c-0.7,0.6-1.4,1.2-1.5,2.2c-0.1,1.2,1.1,2.2,2.1,3c5.4,4.2,6.8,12.2,4.9,18.8
						c-1.9,6.6-6.6,12-11.7,16.7c-10.4,9.6-22.9,16.8-36,22.2c-5.8,2.4-11.8,4.4-18.1,5.4c-4.7,0.8-9.5,0.9-14.2,1.2
						C603.5,492.5,594.8,492.7,588.7,493.5"/>
				</g>
				<g>
					<g>
						<path class="st3" d="M592.7,491.7c6.5-7.2,12.9-14.4,19.2-21.7c6.3-7.4,12.6-14.8,18.7-22.3s12.1-15,18.1-22.6
							c5.9-7.6,11.7-15.4,17.5-23.1c5.7-7.7,11.4-15.7,16.9-23.5c0.7-1,1.4-2,2.1-3c0.5-0.7-0.5-1.5-1-0.9
							c-5.5,7.9-11.1,15.8-16.8,23.6s-11.6,15.6-17.5,23.3c-5.9,7.6-11.9,15.2-18,22.7c-6.1,7.4-12.3,14.9-18.5,22.3
							c-6.3,7.4-12.6,14.6-19.1,21.8c-0.9,0.9-1.6,1.8-2.5,2.7C591.2,491.5,592.1,492.3,592.7,491.7L592.7,491.7z"/>
					</g>
					<g>
						<path class="st3" d="M610.3,471.6c1.9-6.6,4-13.1,6.2-19.6c2.2-6.4,4.6-12.8,7-19.1c1.3-3.6,2.8-7.2,4.1-10.8
							c0.1-0.3,0.1-0.7-0.3-0.9c-0.3-0.1-0.8,0-0.9,0.3c-2.5,6.4-5,12.8-7.4,19.3c-2.4,6.5-4.7,12.9-6.8,19.5
							c-1.1,3.6-2.3,7.4-3.4,11.1C608.9,472.1,610.2,472.4,610.3,471.6L610.3,471.6z"/>
					</g>
					<g>
						<path class="st3" d="M632.9,444.7c6-2.9,12-5.9,17.9-9.3c5.9-3.3,11.7-7,17.3-10.9c3.1-2.1,6-4.4,8.9-6.7
							c0.3-0.2,0.4-0.6,0.2-0.9c-0.2-0.3-0.6-0.4-0.9-0.2c-5.2,4.2-10.6,8-16.2,11.7c-5.7,3.6-11.6,7-17.6,10.1
							c-3.2,1.7-6.6,3.3-9.9,5c-0.3,0.2-0.5,0.5-0.4,0.8C632.2,444.6,632.6,444.8,632.9,444.7L632.9,444.7z"/>
					</g>
					<g>
						<path class="st3" d="M657,414.1c1.1-5.3,2.6-10.4,4.2-15.5c1.6-5.2,3.5-10.1,5.5-15.2c1.1-2.8,2.3-5.5,3.5-8.3
							c0.3-0.8-0.8-1.3-1.1-0.6c-2.2,4.9-4.2,9.8-6.1,14.9c-1.9,5.1-3.6,10.2-5.1,15.5c-0.8,2.9-1.5,5.8-2.2,8.8
							C655.5,414.6,656.8,414.9,657,414.1L657,414.1z"/>
					</g>
				</g>
			</g>
			<g>
				<g>
					<path class="st5" d="M658,471c3.3-2.8,6.9-5.4,10.5-7.9c3.6-2.5,7.4-4.9,11.2-7.1c3.7-2.2,7.6-4.2,11.6-6c4-1.9,8-3.5,12.1-5.1
						c4.1-1.5,8.3-2.9,12.5-4c0.5-0.2,1.1-0.3,1.5-0.4c0.4-0.1,0.6-0.6,0.5-1c-0.1-0.4-0.6-0.6-1-0.5c-4.3,1.1-8.5,2.5-12.6,3.9
						s-8.2,3.2-12.1,5c-4,1.8-8,3.8-11.8,6s-7.5,4.5-11.2,7c-3.6,2.5-7.2,5.1-10.6,7.9c-0.4,0.4-0.9,0.7-1.2,1.1
						c-0.3,0.3-0.5,0.7-0.2,1C657.2,471.1,657.7,471.2,658,471L658,471z"/>
				</g>
				<g>
					<path class="st5" d="M707.6,442.4c9.7-6.1,20.6-10.5,32-12.9c4.5-1,9.3-1.6,13.7-0.3c2.1,0.6,4.3,2.5,3.4,4.5
						c-0.3,0.7-0.9,1.1-1.4,1.5c-5.3,3.6-11.7,5.1-18.1,6.1C727.1,443,717.8,442,707.6,442.4"/>
				</g>
				<g>
					<path class="st5" d="M691,448.8c4.4-10.7,10.7-20.5,18.5-29c3.2-3.3,6.6-6.7,11-8.1c2-0.7,5-0.5,5.4,1.6
						c0.1,0.7-0.1,1.4-0.3,2.1c-2.2,6-6.7,10.9-11.2,15.4C707.2,438,699.1,442.6,691,448.8"/>
				</g>
				<g>
					<path class="st5" d="M695.3,446.6c11.4-2,23.1-2,34.5,0c4.6,0.8,9.2,2,12.8,4.9c1.7,1.3,3.1,4,1.5,5.4
						c-0.5,0.5-1.2,0.7-1.9,0.9c-6.2,1.4-12.7,0.3-19-1.1C713.2,454.4,705,450,695.3,446.6"/>
				</g>
				<g>
					<path class="st5" d="M673,458.9c2-11.4,6-22.4,11.8-32.4c2.3-4,5.1-7.9,9-10.3c1.8-1.1,4.8-1.5,5.6,0.5
						c0.3,0.7,0.2,1.4,0.2,2.1c-0.8,6.3-4.1,12-7.5,17.5C686.5,444.8,679.6,451.1,673,458.9"/>
				</g>
				<g>
					<path class="st5" d="M662.2,466.8c-0.4-9.7,1-19.5,3.9-28.7c1.1-3.7,2.7-7.4,5.5-10.1c1.3-1.2,3.6-2.1,4.7-0.7
						c0.4,0.5,0.5,1.1,0.5,1.7c0.5,5.3-1.2,10.7-3.1,15.7C670.7,452.8,666.2,459.1,662.2,466.8"/>
				</g>
				<g>
					<path class="st5" d="M676,457.3c11.4-2,23.1-2,34.5,0c4.6,0.8,9.2,2,12.8,4.9c1.7,1.3,3.1,4,1.5,5.4c-0.5,0.5-1.2,0.7-1.9,0.9
						c-6.2,1.4-12.7,0.3-19-1.1C693.8,465.1,685.6,460.8,676,457.3"/>
				</g>
				<g>
					<path class="st5" d="M666.1,464c8.8-0.1,17.6,1.3,25.8,4.2c3.3,1.1,6.6,2.7,9,5.3c1.1,1.2,1.8,3.3,0.5,4.3
						c-0.5,0.3-1.1,0.4-1.5,0.4c-4.9,0.3-9.6-1.3-14.1-3.2C678.5,472,672.9,467.7,666.1,464"/>
				</g>
			</g>
		</g>
		<g>
			<g>
				<g>
					<path class="st2" d="M381,536.8c-1.4-13-4.1-26.3-11.1-37.4c-2.7-4.3-6-8.2-10.4-10.7s-9.8-3.3-14.5-1.2
						c-0.9,0.4-1.8,0.9-2.7,0.5c-0.6-0.3-0.9-0.9-1.2-1.3c-4.3-7.3-10.4-13.3-16.9-18.7c-13.5-11.3-29.6-20.6-47.2-20.9
						c-7.5-0.2-15.9,1.9-20.2,8.2c-4.2,6.3-2.9,14.7,0,21.7c4.8,11.5,13.5,21,23.5,28.5c10,7.4,21.3,12.9,32.7,17.9
						C332.9,531.8,359.4,537,381,536.8"/>
				</g>
				<g>
					<g>
						<path class="st3" d="M376.3,532.9c-7.7-3.9-15.4-7.8-23-11.8c-7.6-4-15.2-8.2-22.6-12.6c-7.4-4.4-14.6-9-21.7-13.9
							c-7-4.9-13.6-10.2-20.2-15.6c-6.6-5.3-13.4-10.4-20.5-14.9c-0.9-0.6-1.8-1.1-2.7-1.6c-0.6-0.4-0.2-1.3,0.5-1
							c7.4,4.2,14.1,9.3,20.7,14.5c6.7,5.3,13.3,10.6,20.2,15.7c7,5.1,14.2,9.7,21.6,14.2c7.4,4.5,15,8.7,22.5,12.8
							c7.6,4.1,15.3,8,23,11.9c1,0.5,1.9,1,2.8,1.4C377.4,532.3,377,533.2,376.3,532.9L376.3,532.9z"/>
					</g>
					<g>
						<path class="st3" d="M359.6,524.2c-4-4.2-8-8.4-12-12.6c-4-4.2-8.1-8.5-12.1-12.7c-2.2-2.4-4.5-4.7-6.7-7.1
							c-0.2-0.2-0.1-0.6,0.1-0.8c0.3-0.2,0.6-0.1,0.8,0.1c4,4.2,8,8.4,12,12.6c4,4.2,8.1,8.5,12.1,12.7c2.2,2.4,4.5,4.7,6.7,7.1
							c0.2,0.2,0.1,0.6-0.1,0.8C360.1,524.4,359.8,524.3,359.6,524.2L359.6,524.2z"/>
					</g>
					<g>
						<path class="st3" d="M328.1,507c-5.8-0.8-11.7-1.3-17.5-1.9c-6-0.6-12-1.1-18.1-1.8c-3.2-0.4-6.4-0.7-9.6-1.1
							c-0.7-0.1-0.5-1.1,0.2-1.1c5.8,0.8,11.7,1.3,17.5,1.9c6,0.6,12,1.1,18.1,1.8c3.2,0.4,6.4,0.7,9.6,1.1
							C328.9,505.9,328.8,507,328.1,507L328.1,507z"/>
					</g>
					<g>
						<path class="st3" d="M300.4,488.1c-3.2-6.5-7.2-12.7-11.7-18.3c-1.2-1.5-2.6-3-3.9-4.4c-0.2-0.2-0.3-0.5-0.1-0.8
							c0.2-0.2,0.6-0.3,0.8-0.1c5.2,5.3,9.5,11.5,13.1,17.9c1.1,1.7,2,3.5,2.9,5.3c0.1,0.3-0.1,0.6-0.3,0.7
							C300.8,488.4,300.5,488.3,300.4,488.1L300.4,488.1z"/>
					</g>
				</g>
			</g>
			<g>
				<g>
					<path class="st5" d="M380.6,463.3c-3.6-2.4-7.3-5-10.7-7.6s-6.8-5.5-10-8.6c-3.2-3-6.3-6-9.2-9.3c-3-3.2-5.8-6.6-8.5-10.1
						c-2.7-3.4-5.2-7.1-7.5-10.8c-0.3-0.5-0.6-1-0.9-1.3c-0.2-0.3-0.7-0.4-1.1-0.2s-0.4,0.7-0.2,1.1c2.4,3.7,4.9,7.4,7.4,10.9
						c2.7,3.5,5.4,6.9,8.3,10.1c3,3.3,6,6.5,9.3,9.6c3.2,3.1,6.5,5.9,9.9,8.7c3.4,2.8,7,5.3,10.7,7.7c0.5,0.3,0.9,0.6,1.3,0.9
						c0.3,0.2,0.8,0.2,1.1-0.1C380.9,464.1,380.9,463.5,380.6,463.3L380.6,463.3z"/>
				</g>
				<g>
					<path class="st5" d="M338.7,424.5c-8.8-7.5-16.1-16.6-21.8-26.7c-2.3-4-4.3-8.4-4.3-13c0-2.2,1.1-4.9,3.2-4.7
						c0.7,0.1,1.3,0.5,1.9,1c5.1,3.9,8.3,9.7,11.2,15.4C333.4,405.7,335.2,414.9,338.7,424.5"/>
				</g>
				<g>
					<path class="st5" d="M349.7,438.5c-11.5-1.1-22.8-4.2-33.2-9.2c-4.2-2-8.3-4.4-11-8.1c-1.2-1.7-1.9-4.7,0-5.6
						c0.7-0.4,1.3-0.4,2.1-0.3c6.4,0.3,12.3,3.2,18.1,6.1C334.6,426.2,341.4,432.6,349.7,438.5"/>
				</g>
				<g>
					<path class="st5" d="M346.3,434.9c-5.3-10.2-8.8-21.5-10.2-32.9c-0.6-4.6-0.8-9.4,0.9-13.7c0.8-2,2.9-4.1,4.8-3.1
						c0.7,0.4,1.1,1,1.4,1.6c3.2,5.5,4,12.1,4.6,18.4C348.4,415.6,346.7,424.7,346.3,434.9"/>
				</g>
				<g>
					<path class="st5" d="M364.7,452.6c-11.5,1.4-23.2,0.9-34.5-1.7c-4.5-1.1-9.1-2.5-12.5-5.5c-1.6-1.4-2.9-4.1-1.2-5.5
						c0.6-0.5,1.2-0.7,2-0.8c6.3-1.1,12.7,0.4,18.9,2.1C347.2,443.9,355.2,448.7,364.7,452.6"/>
				</g>
				<g>
					<path class="st5" d="M375.4,460.6c-9.2,3.2-18.9,4.9-28.6,4.8c-3.9,0-7.9-0.4-11.3-2.3c-1.6-0.9-3.2-2.9-2-4.3
						c0.4-0.5,1-0.8,1.5-1c5-2,10.5-2,15.9-1.7C359.5,456.6,366.9,459,375.4,460.6"/>
				</g>
				<g>
					<path class="st5" d="M362.3,450.2c-5.3-10.2-8.8-21.5-10.2-32.9c-0.6-4.6-0.8-9.4,0.9-13.7c0.8-2,2.9-4.1,4.8-3.1
						c0.7,0.4,1.1,1,1.4,1.6c3.2,5.5,4,12.1,4.6,18.4C364.5,430.9,362.7,440,362.3,450.2"/>
				</g>
				<g>
					<path class="st5" d="M371.5,457.7c-2.7-8.3-3.9-17.2-3.6-25.9c0.1-3.5,0.6-7.1,2.4-10.1c0.9-1.4,2.7-2.8,3.9-1.7
						c0.4,0.4,0.7,0.9,0.9,1.3c1.7,4.6,1.5,9.6,1.1,14.4C375.5,443.4,373.2,450.1,371.5,457.7"/>
				</g>
			</g>
		</g>
		<g>
			<path class="st6" d="M541.7,334.9c0-20.3-14.7-33.2-36.9-33.2c-18.2,0-32.9,8.1-43.6,21.9c-3.6,4.7-10.2,5.8-15.1,2.4l-24-17.1
				c-4.8-3.3-6-9.9-2.9-14.8c19-28.8,49.4-46.8,91.3-46.8c51.2,0,86.7,27.9,86.7,76.9c0,61.8-49.5,72.6-56.5,109.2
				c-1,5.2-5.4,8.9-10.7,8.9h-30c-6.6,0-11.7-5.8-10.8-12.3C496.1,381.8,541.7,368.3,541.7,334.9z M481.6,508.6
				c0-21.2,13.7-32.1,32.8-32.1c19.1,0,32.8,10.9,32.8,32.1c0,20.8-13.7,33.2-32.8,33.2C495.3,541.8,481.6,529.4,481.6,508.6z"/>
			<path class="st7" d="M548.7,334.7c0-20.3-14.7-33.2-36.9-33.2c-18.2,0-32.9,8.1-43.6,21.9c-3.6,4.7-10.2,5.8-15.1,2.4l-24-17.1
				c-4.8-3.3-6-9.9-2.9-14.8c19-28.8,49.4-46.8,91.3-46.8c51.2,0,86.7,27.9,86.7,76.9c0,61.8-49.5,72.6-56.5,109.2
				c-1,5.2-5.4,8.9-10.7,8.9h-30c-6.6,0-11.7-5.8-10.8-12.3C503.1,381.7,548.7,368.2,548.7,334.7z M488.6,508.4
				c0-21.2,13.7-32.1,32.8-32.1c19.1,0,32.8,10.9,32.8,32.1c0,20.8-13.7,33.2-32.8,33.2C502.2,541.6,488.6,529.2,488.6,508.4z"/>
		</g>
		<g>
			<path class="st2" d="M691.5,262.8c1-3.9-1.2-7.1-5.5-8.1c-3.5-0.9-6.7,0-9.5,2.1c-1,0.8-2.3,0.7-3.1-0.3l-3.8-4.4
				c-0.8-0.9-0.7-2.2,0.2-3c5.1-4.7,11.7-6.7,19.8-4.7c9.8,2.4,15.4,9.5,13,18.9c-3,11.8-13,11.7-16,18.3c-0.5,1-1.4,1.4-2.5,1.2
				l-5.7-1.4c-1.2-0.3-2-1.7-1.5-2.9C680.5,269.6,690,269.2,691.5,262.8z M671.8,293.3c1.1-4.1,4.1-5.5,7.8-4.6
				c3.6,0.9,5.8,3.6,4.8,7.7c-1,4-4.2,5.7-7.8,4.9C672.8,300.4,670.8,297.3,671.8,293.3z"/>
			<path class="st2" d="M361.4,186.8c-0.9-2.9-3.4-4-6.6-3.1c-2.5,0.8-4.3,2.6-5.2,4.9c-0.3,0.8-1.2,1.2-2,1l-4.1-1.3
				c-0.8-0.3-1.2-1.1-1.1-1.9c1.4-4.8,4.9-8.6,10.7-10.4c7.2-2.2,13.3,0.2,15.4,7.1c2.7,8.6-3.8,12.2-3.2,17.7
				c0.1,0.8-0.4,1.5-1.1,1.7l-4.1,1.2c-1,0.3-1.9-0.3-2-1.2C357.1,195.3,362.8,191.5,361.4,186.8z M360.4,213.6
				c-0.9-3,0.6-5.1,3.2-5.8c2.7-0.8,5,0.1,6,3.1c0.9,3-0.5,5.3-3.2,6C363.8,217.7,361.4,216.5,360.4,213.6z"/>
			<path class="st2" d="M621.9,165c0.1-3.2-2.3-5.3-5.8-5.4c-3-0.1-5.3,1.2-7.1,3.3c-0.6,0.8-1.6,0.9-2.4,0.3l-3.8-2.8
				c-0.8-0.6-1-1.6-0.4-2.4c3.2-4.6,8-7.4,14.8-7.3c8.2,0.1,13.8,4.7,13.7,12.6c-0.2,9.9-8.1,11.5-9.4,17.4
				c-0.2,0.9-0.9,1.4-1.7,1.4l-4.8-0.1c-1.1,0-1.9-1-1.7-2C614.5,172.5,621.8,170.4,621.9,165z M611.8,192.7
				c0.1-3.4,2.3-5.1,5.3-5.1c3.1,0.1,5.3,1.8,5.2,5.3c-0.1,3.3-2.3,5.3-5.3,5.3C613.9,198.1,611.8,196.1,611.8,192.7z"/>
		</g>
		<g>
			<g>
				<path class="st8" d="M623.4,534.8c0,0-2.6,7.6-1.1,17.4c0,0-8.2,4.4-16.3-1.1c0,0,6.7-5.1,4.6-18.8"/>
				<path class="st9" d="M587.1,560.3c0.3-0.5,0.6-1,1.1-1.2c2.8-1.5,9.4-5.3,19.5-10.2c0,0,5.6,1.9,14.2,0.9c0,0,1,5.6,0.8,10.2
					C617.5,560.3,597.3,561.1,587.1,560.3z"/>
				<path class="st10" d="M622.8,560.1c0,1.1-0.1,2.3-0.2,3.2h-35.7v-1.7c0-0.4,0.1-0.9,0.3-1.2
					C597.3,561.1,617.5,560.3,622.8,560.1z"/>
				<path class="st10" d="M599,554.8c0,0.4-0.3,0.7-0.7,0.7c-0.4,0-0.7-0.3-0.7-0.7s0.3-0.7,0.7-0.7
					C598.7,554.1,599,554.4,599,554.8z"/>
				<path class="st10" d="M603.8,552.8c0,0.4-0.3,0.7-0.7,0.7c-0.4,0-0.7-0.3-0.7-0.7c0-0.4,0.3-0.7,0.7-0.7
					S603.8,552.4,603.8,552.8z"/>
				<path class="st10" d="M608.4,550.3c0,0.4-0.3,0.7-0.7,0.7c-0.4,0-0.7-0.3-0.7-0.7c0-0.4,0.3-0.7,0.7-0.7
					C608.2,549.7,608.4,549.9,608.4,550.3z"/>
			</g>
			<g>
				<path class="st8" d="M645.9,530.8c0,0,4.1,15.7,2.2,21.9c0,0,8.2,4.4,16.3-1.1c0,0-7.8-2.7-5.2-24.8"/>
				<path class="st9" d="M683.2,561c-0.3-0.5-0.6-1-1.1-1.2c-2.8-1.5-9.4-5.3-19.5-10.2c0,0-5.6,1.9-14.2,0.9c0,0-1,5.6-0.8,10.2
					C652.8,560.9,673.1,561.7,683.2,561z"/>
				<path class="st10" d="M647.6,560.6c0,1.1,0.1,2.3,0.2,3.2h35.7v-1.7c0-0.4-0.1-0.9-0.3-1.2C673.1,561.7,652.8,560.9,647.6,560.6
					z"/>
				<path class="st10" d="M663.9,551.4c0,0.4-0.3,0.7-0.7,0.7c-0.4,0-0.7-0.3-0.7-0.7c0-0.4,0.3-0.7,0.7-0.7
					C663.6,550.7,663.9,551,663.9,551.4z"/>
				<path class="st10" d="M674.7,556.5c0,0.4-0.3,0.7-0.7,0.7s-0.7-0.3-0.7-0.7c0-0.4,0.3-0.7,0.7-0.7
					C674.4,556,674.7,556.2,674.7,556.5z"/>
				<path class="st10" d="M668.8,554c0,0.4-0.3,0.7-0.7,0.7c-0.4,0-0.7-0.3-0.7-0.7s0.3-0.7,0.7-0.7
					C668.5,553.5,668.8,553.8,668.8,554z"/>
			</g>
			<g>
				<g>
					<path class="st8" d="M619,282.7c2.6,4.3,3.1,9.5,2,14.3c-1.1,4.8-3.5,9.3-6.4,13.5c5.3,3.5,11.7,5.7,18.3,6.1
						c2.6,0.2,5.3,0,7.5-1.1c-2.4-2.1-3.5-5-4.4-7.7c-1.6-5.6-2.2-11.5-1.4-17.2"/>
				</g>
				<g>
					<path class="st11" d="M626.2,292.2c2,1.1,5.4,2.7,8.2,3.2c0-1.6,0.1-3.3,0.3-5l-15.7-7.7c0.6,1.1,1.1,2.1,1.5,3.2
						C621.9,288.3,623.6,290.8,626.2,292.2z"/>
				</g>
			</g>
			<g>
				<g>
					
						<rect x="643.4" y="270.6" transform="matrix(0.9807 -0.1954 0.1954 0.9807 -40.4888 131.4082)" class="st12" width="4.8" height="0.7"/>
				</g>
				<g>
					<path class="st8" d="M627.7,258.2c4.4-1.1,9.2,0.5,12.4,3.6c3.2,3.2,5.6,8,6.4,12.5s0.5,7.3,0.1,11.7c-0.1,1.1-0.9,3.7-1.6,4.7
						c-0.8,1-1.7,1.8-2.9,2.2c-1.8,0.6-5.3,0.8-8,0.3c-4.5-0.8-8.3-2.1-11.6-5.3c-3.2-3.2-3.3-6.2-2.7-10.7"/>
				</g>
				<g>
					<g>
						<path class="st8" d="M620.9,280.8c-0.7-0.5-1.3-1-2.1-1.2c-0.8-0.2-1.7-0.2-2.4,0.3c-0.7,0.5-1.1,1.2-1.1,2
							c-0.1,0.8,0.1,1.6,0.5,2.3c0.6,1.2,1.7,2.4,3.1,2.7c1.3,0.3,3-0.6,3.3-1.9c0.2-0.9-0.1-1.8-0.5-2.7"/>
					</g>
					<g>
						<path class="st11" d="M619.8,281.7c-0.2-0.2-0.5-0.4-0.8-0.4c-0.3-0.1-0.6-0.1-0.9,0.1c-0.2,0.2-0.4,0.4-0.4,0.7
							c0,0.3,0,0.6,0.2,0.9c0.2,0.5,0.6,0.9,1.1,1c0.5,0.1,1.1-0.2,1.1-0.7c0.1-0.3,0-0.7-0.2-1"/>
					</g>
				</g>
				<g>
					<g>
						<path class="st13" d="M615.3,265.8c-1.5,0.2-3.2,0.2-4.7,0c-1.3-0.2-2.7-0.5-3.8-1.1c-2.1-1.2-3.4-3.4-3.9-5.7
							c-0.4-2.4,0-4.8,1.1-7c0.9-1.8,2.2-3.5,4-4.4c1.9-1,4.3-0.9,6.4-0.5c2.6,0.5,5.2,1.5,6.6,3.7c1.6,2.6,1.1,5.9,0.2,8.9"/>
					</g>
					<g>
						<path class="st13" d="M646.2,266.7c-0.9-5.3-5.1-9.9-10.2-11.7c-5.2-1.8-11-0.9-15.7,1.9c-1.5,0.9-2.9,2-4.3,3.1
							c-1.2,1-2.4,1.9-3.3,3.1c-1.7,2.2-2.5,5-2.4,7.7c0.1,2.8,0.9,5.4,2,7.9c0.4,0.9,0.8,1.7,1.6,2.1c1.6,1,3.6-0.5,5.5-0.6
							c0.2,0,0.5,0,0.7,0.1c0.3,0.2,0.3,0.6,0.4,0.9c0.5,5.1,1.8,10,4.1,14.6c0.5,1,1,1.8,1.8,2.5c-1.8-5.8-2.6-11.2-2.5-17.3
							l0.1-0.9c0.1-1,0.3-2.5,0.4-2.9c0.6-3,1.2-3.9,1.8-6.8c0.6,1.1,1.1,2.4,1.6,3.5c0.2,0.4,0.4,0.8,0.8,0.9s0.8-0.1,1.1-0.3
							c2.1-1.2,4.2-2.4,6.4-3.6c0.3-0.1,0.5-0.3,0.7-0.6c0.1-0.2,0.1-0.5,0.1-0.7c-0.1-1.2-0.3-2.5-0.4-3.7c1.1,1.1,2.2,2.1,3.2,3.2
							c0.2,0.2,0.5,0.4,0.7,0.5c0.3,0.1,0.6-0.1,0.8-0.2c1.5-0.6,3.1-1.1,4.7-1.8c0.2-0.1,0.4-0.1,0.5-0.3
							C646.3,267.1,646.3,266.9,646.2,266.7z"/>
					</g>
					<path class="st12" d="M611.2,266.7c2.4-3.3,6-7.5,11.1-10.8c1.5-1,0.7-3.2-1.1-3.1c-5,0.7-11.2,3.3-13,12.5
						C608,267.1,610.3,268.1,611.2,266.7z"/>
				</g>
				<g>
					<path class="st13" d="M635.2,272.3c-2.1,0-4.9,0.3-5.9,1.5c-0.5,0.7-1.2,0.6-0.8-0.1c1.4-2.1,3.5-2.5,6.7-2.8
						c0.4,0,0.7,0.3,0.7,0.7C635.8,272,635.6,272.3,635.2,272.3L635.2,272.3z"/>
				</g>
				<g>
					<path class="st11" d="M628.6,282.9c0.5,1.5,2.8,2.3,5.1,1.5c2.3-0.7,3.7-2.6,3.2-4.1c-0.5-1.5-2.8-2.3-5.1-1.5
						C629.5,279.6,628.1,281.4,628.6,282.9z"/>
					<path class="st13" d="M643,271.6c0.2,0.6,0.6,1,1,0.9c0.4-0.1,0.5-0.7,0.3-1.2s-0.6-1-1-0.9C642.9,270.4,642.8,271,643,271.6z"
						/>
					<path class="st13" d="M633.2,275.6c0.2,0.7,0.8,1.1,1.2,1c0.5-0.2,0.7-0.8,0.5-1.4c-0.2-0.7-0.8-1.1-1.2-1
						C633.2,274.2,632.9,274.9,633.2,275.6z"/>
					<path class="st14" d="M641.7,278.3c0.4-0.2,0.7-0.5,0.9-0.9c-1.4-0.8-2.6-2.2-2.9-3.8c0-0.2,0-0.5,0.3-0.5
						c0.2-0.1,0.5,0,0.5,0.3c0.3,1.6,1.4,2.9,3,3.5c0.2,0.1,0.3,0.4,0.2,0.6c-0.3,0.6-0.9,1.1-1.4,1.5
						C641.7,279.3,641.3,278.6,641.7,278.3z"/>
					<path class="st15" d="M644.5,281.7c0,0-1.7,1.8-4.6,1.5C639.9,283.2,644.3,285.3,644.5,281.7z"/>
				</g>
				<g>
					<g>
						<path class="st12" d="M633.3,280.8c-0.8,0-1.6-0.2-2.4-0.6c-1.1-0.7-2-1.7-2.4-3c-0.9-2.7,0.6-5.5,3.2-6.3
							c1.2-0.4,2.6-0.3,3.7,0.4c1.1,0.7,2,1.7,2.4,3c0.9,2.7-0.6,5.5-3.2,6.3C634.2,280.8,633.7,280.8,633.3,280.8z M633.1,271.4
							c-0.4,0-0.8,0.1-1.1,0.2c-2.2,0.7-3.4,3.2-2.7,5.4c0.4,1.1,1.1,2,2.1,2.6c1,0.6,2.1,0.7,3.2,0.4c2.2-0.7,3.4-3.2,2.7-5.4
							c-0.4-1.1-1.1-2-2.1-2.6C634.4,271.6,633.7,271.4,633.1,271.4z"/>
					</g>
					<g>
						<path class="st12" d="M644.5,276.5c-2,0-3.9-1.6-4.5-4c-0.7-2.7,0.7-5.4,3-6c1.1-0.3,2.3,0,3.3,0.7c1.1,0.8,1.7,1.8,2.1,3.2
							l0,0c0.3,1.3,0.2,2.7-0.3,3.7c-0.6,1.1-1.4,1.9-2.6,2.2C645.2,276.4,644.9,276.5,644.5,276.5z M643.9,267.1
							c-0.3,0-0.5,0-0.8,0.1c-1.9,0.5-3.1,2.8-2.4,5.2c0.6,2.3,2.7,3.8,4.6,3.3c1-0.2,1.7-0.9,2.1-1.8c0.5-1,0.6-2.1,0.3-3.2l0,0
							c-0.3-1.1-1-2.1-1.8-2.8C645.3,267.3,644.6,267.1,643.9,267.1z"/>
					</g>
					<g>
						
							<rect x="624.1" y="277.2" transform="matrix(0.9807 -0.1954 0.1954 0.9807 -42.1479 127.7656)" class="st12" width="4.8" height="0.7"/>
					</g>
					<g>
						<path class="st12" d="M637.6,274.1l-0.6-0.5c0.1-0.1,1.7-2.2,3.6-1.3l-0.3,0.7C638.9,272.4,637.6,274.1,637.6,274.1z"/>
					</g>
				</g>
			</g>
			<g>
				<g>
					<path class="st16" d="M604.2,365.1c0,0-5,12.6-7.4,36.1c-2.3,23.5-13.9,137.7-13.9,137.7s39.1,4.8,52.1,1.9
						c0,0-4.8-118.5-2.4-139.9l9.1,139.4c0,0,31.3,1.8,49.4-3.5c0,0-26.7-144.3-39-171.1"/>
					<path class="st17" d="M631.9,417.9c-0.2-0.9-0.3-1.7-0.4-2.6c-2.1,29.2-4.4,58.6-7.5,87.7c-1.1,10.1-0.1,24.6-10.5,30.3
						c-4.7,2.6-10,3.3-15.2,4.2c-4.1,0.7-8.2,1.2-12.3,1.7c9.5,1.1,38.2,3.9,49,1.6C635,540.9,631.6,457.5,631.9,417.9z"/>
					<path class="st17" d="M613.7,373.7c12.6-2.1,26.8-1.7,38.4-7.8v-1.2l-47.8,0.5c0,0-2.7,6.8-5.1,19.6
						C602.3,379.3,606.7,374.9,613.7,373.7z"/>
					<path class="st17" d="M676.5,536.6c-6.4-0.9-14-1.1-20.1-3.9c-4.3-1.9-6.8-5.3-8.2-9.7c-2.1-6.7-2.9-14-4-20.9
						c-2.6-16.3-3.4-32.9-5.8-49.1c-1.1-7.1-2.5-13.9-3.8-20.9l7.1,108.5c0,0,27.6,1.5,45.8-2.6C683.7,537.7,679.8,537,676.5,536.6z
						"/>
				</g>
				<g>
					<g>
						<path class="st7" d="M593.8,538.9c-0.2-11.5,0-22.9,0.4-34.4c0.4-11.5,1.1-22.9,2-34.3c1-11.4,2.1-22.7,3.5-34
							c1.4-11.5,3.2-22.8,5.3-34.2c2-11.3,4.2-22.4,6.8-33.6c0.3-1.3,0.7-2.8,1-4.1c0.1-0.5-0.7-0.8-0.8-0.2
							c-2.6,11.2-5,22.4-7,33.8c-2,11.3-3.8,22.5-5.3,33.8c-1.5,11.4-2.8,22.7-3.8,34.2c-1,11.5-1.7,22.8-2.2,34.3
							c-0.5,11.5-0.7,23-0.6,34.6c0,1.4,0,2.9,0,4.3C593.1,539.4,593.8,539.4,593.8,538.9L593.8,538.9z"/>
					</g>
					<g>
						<path class="st7" d="M619.5,362c0.1,11.6-0.3,23.1-0.7,34.7c-0.5,11.7-1.1,23.5-1.6,35.2c-0.6,11.7-1.1,23.6-1.6,35.3
							c-0.4,11.7-0.5,23.3-0.5,35.1c0,11.4,0,22.6-0.3,34c0,1.3-0.1,2.7-0.1,4c0,0.6,0.9,0.6,0.9,0c0.3-11.2,0.3-22.3,0.4-33.5
							c0-11.7,0-23.4,0.4-35.1c0.4-11.7,0.9-23.5,1.5-35.2c0.6-11.7,1.2-23.5,1.7-35.3c0.5-11.6,0.9-23.2,0.9-34.8
							c0-1.4,0-2.9,0-4.3C620.3,361.5,619.5,361.5,619.5,362L619.5,362z"/>
					</g>
					<g>
						<path class="st7" d="M629.8,364.4c1.1,9.6,1.8,19.3,2.3,28.9c0.1,2.8,0.2,5.4,0.3,8.2c0,0.6,0.9,0.6,0.9,0
							c-0.3-9.6-0.9-19.3-1.7-28.9c-0.3-2.8-0.6-5.4-0.9-8.2C630.6,363.9,629.8,363.9,629.8,364.4L629.8,364.4z"/>
					</g>
					<g>
						<path class="st7" d="M638.7,365.7c2.6,11.2,4.5,22.4,5.9,33.8c1.4,11.4,2.5,22.7,3.3,34.2c0.9,11.4,1.4,22.8,2.1,34.2
							c0.7,11.5,1.3,22.9,2.2,34.4c0.9,11.3,2,22.5,3.6,33.8c0.2,1.4,0.4,2.9,0.7,4.3c0.1,0.5,0.9,0.3,0.8-0.2
							c-1.7-11.4-3-22.7-3.9-34.2c-1-11.5-1.6-22.9-2.3-34.4c-0.7-11.4-1.2-22.8-2-34.2c-0.8-11.5-1.7-22.8-3.2-34.2
							c-1.3-11.3-3.2-22.4-5.4-33.4c-0.3-1.4-0.6-2.9-1-4.3C639.4,364.9,638.6,365.1,638.7,365.7L638.7,365.7z"/>
					</g>
					<g>
						<path class="st7" d="M648.1,364.9c2.9,11.2,5.5,22.3,8.1,33.6c2.6,11.2,5,22.4,7.2,33.7c2.3,11.3,4.3,22.5,6.3,33.9
							c1.9,11.4,3.7,22.7,5.3,34.1c1.6,11.5,3.2,22.9,4.5,34.4c0.2,1.4,0.3,2.8,0.5,4.2c0.1,0.5,0.9,0.6,0.9,0
							c-1.3-11.4-2.8-22.7-4.4-34.1s-3.3-22.7-5.3-34.1c-1.9-11.4-4-22.7-6.2-34.1c-2.2-11.4-4.6-22.6-7.1-33.9
							c-2.5-11.3-5.2-22.5-8-33.8c-0.4-1.3-0.7-2.8-1.1-4.1C648.7,364.2,648,364.5,648.1,364.9L648.1,364.9z"/>
					</g>
				</g>
			</g>
			<g>
				<g>
					<path class="st18" d="M651.8,307.9c3.1,1,5.4,3.5,7.1,6.3c1.6,2.9,2.5,6,3.5,9.1c2.8,7.8,6.7,15.6,6.6,23.9
						c0,2.6-0.6,5.3-2.2,7.3c-1.8,2.2-4.8,3.1-7.5,3.8c-1.4,0.4-3,0.9-4.5,0.7c-2.4-0.3-4.5-1.9-5.7-3.9c-1.2-2-1.8-4.4-2.1-6.8
						c-0.9-6.3-0.4-12.7,0-19c0.5-6.3,1-12.7,3.7-18.3"/>
				</g>
				<g>
					<g>
						<path class="st18" d="M619.9,302.3c-5.7,1.6-13.5,4.4-18.5,7.6c-0.8,0.5-0.3,1.5-0.8,2.4c-1,1.8,1.3,3,2.1,4.9
							c2.1,5.2,1.1,10.9,1.8,16.4c1.1,8.2,6.3,15.8,5.8,24.1c0,0.7-0.1,1.3,0.2,1.9c0.5,1.1,1.9,1.2,3.1,1.3
							c10.3,0.8,20.6,1.2,30.9,1.5c0.6,0,1.2,0,1.7-0.3c0.6-0.5,0.8-1.2,0.9-2c0.7-4,1.8-7.9,3.4-11.7c1.5-3.8,3.5-7.5,4.1-11.6
							c0.3-1.8,0.2-3.6,0.1-5.4c-0.2-5.8-0.4-11.7-0.6-17.5c0-1-0.1-2-0.6-2.9c-0.5-0.9-1.4-1.4-2.4-1.9c-4.2-2.3-8.6-4.1-13.2-5.4
							c-1-0.3-1.9-0.5-2.9-0.4c-1.3,0.3-2.4,1.3-3.6,2C628.6,307,622.1,305,619.9,302.3"/>
					</g>
					<g>
						<path class="st8" d="M650.9,310.9c0.2-1.6-1-3.1-2.3-4c-1.3-1-2.9-1.5-4.2-2.5c-1.3-1-2.4-2.5-2.1-4.1
							c0.1-0.7,0.5-1.2,0.8-1.9c0.7-1.2,1.3-2.4,2-3.6c0.3-0.6,0.7-1.1,0.8-1.8c0.4-1.4-0.2-3-0.7-4.3c-0.6-1.5-1.1-3.1-1.7-4.6
							c-0.1-0.3-0.2-0.6-0.1-0.8c0.3-0.6,1.1-0.3,1.6,0c1.8,1.2,3.5,2.7,5.2,4.3c1.8,1.7,3.4,3.7,4.3,6c0.7,1.6,1,3.3,1.4,5.1
							c0.9,3.1,2.3,5.8,3.5,8.7c2.3,5.3,3.9,10.7,5.5,16.1c0.9,3.1,1.8,6.1,2.2,9.3c0.3,2.3,0.2,4.6,0.2,7c-0.1,3.6-0.2,7.3-1,10.9
							c-0.5,2-1.7,4.4-3.8,4.4c-1.6,0-2.8-1.4-3.6-2.8c-3.4-5.6-5.3-12-6.3-18.6C651.7,327.1,651,317.5,650.9,310.9"/>
					</g>
					<g>
						<path class="st8" d="M610.6,352c13.2-1.4,26.5,2.5,39.5,1.1c2.7-0.3,5.8-0.7,7.8,1.2c1.8,1.7,1.7,4.8,0.3,6.8
							c-1.4,2-3.8,3.2-6.2,3.6c-2.4,0.5-4.9,0.4-7.4,0.6c-3.2,0.2-6.2,0.8-9.4,1.1c-7.8,0.7-15.8-0.5-23.1-3.4"/>
					</g>
					<g>
						<path class="st19" d="M619.4,302c0,0,10,7,15.9,0.9c0,0,4.4,1.1,8.7,2.8c0,0-4.6,9.1-13.8,1.2c0,0-8.7,11.5-17.5-2.1
							L619.4,302z"/>
						<path class="st20" d="M619.7,301.5c0,0,10,5.5,15.2,0.2c0,0,3.2,1.5,6.9,3c0,0-4,7.8-11.8,1.1c0,0-7.5,9.9-15.1-1.8
							L619.7,301.5z"/>
					</g>
					<path class="st18" d="M602.4,309.9c0,0,4.1,1.1,6.4,18.3c2.3,17.1,4.1,17.7,4.1,17.7s20,5.5,23.2,7.1l1.2,14.3
						c0,0-28.7,1.1-38.1-2.2c-9.5-3.2-4.1-44.5-4.1-44.5S597,308.9,602.4,309.9z"/>
					<g>
						<g>
							<path class="st7" d="M605.7,318.5c0.6,0,0.6-0.9,0-0.9C605.2,317.8,605.2,318.5,605.7,318.5L605.7,318.5z"/>
						</g>
						<g>
							<path class="st7" d="M598.2,334.2c0.6,0,0.6-0.9,0-0.9C597.6,333.3,597.6,334.2,598.2,334.2L598.2,334.2z"/>
						</g>
						<g>
							<path class="st7" d="M615.2,339.4c0.6,0,0.6-0.9,0-0.9C614.6,338.6,614.6,339.4,615.2,339.4L615.2,339.4z"/>
						</g>
						<g>
							<path class="st7" d="M601.7,352.5c0.6,0,0.6-0.9,0-0.9C601.1,351.8,601.1,352.5,601.7,352.5L601.7,352.5z"/>
						</g>
						<g>
							<path class="st7" d="M607.1,364.6c0.6,0,0.6-0.9,0-0.9C606.5,363.7,606.5,364.6,607.1,364.6L607.1,364.6z"/>
						</g>
						<g>
							<path class="st7" d="M620.9,353c0.6,0,0.6-0.9,0-0.9C620.4,352.1,620.4,353,620.9,353L620.9,353z"/>
						</g>
						<g>
							<path class="st7" d="M633.4,364.1c0.6,0,0.6-0.9,0-0.9C632.8,363.3,632.8,364.1,633.4,364.1L633.4,364.1z"/>
						</g>
						<g>
							<path class="st7" d="M633.4,345.3c0.6,0,0.6-0.9,0-0.9C632.8,344.5,632.8,345.3,633.4,345.3L633.4,345.3z"/>
						</g>
						<g>
							<path class="st7" d="M621.1,329.9c0.6,0,0.6-0.9,0-0.9S620.6,329.9,621.1,329.9L621.1,329.9z"/>
						</g>
						<g>
							<path class="st7" d="M612.4,307.4c0.6,0,0.6-0.9,0-0.9C612,306.6,612,307.4,612.4,307.4L612.4,307.4z"/>
						</g>
						<g>
							<path class="st7" d="M621.3,317c0.6,0,0.6-0.9,0-0.9C620.8,316.1,620.8,317,621.3,317L621.3,317z"/>
						</g>
						<g>
							<path class="st7" d="M635.7,328.3c0.6,0,0.6-0.9,0-0.9C635.1,327.5,635.1,328.3,635.7,328.3L635.7,328.3z"/>
						</g>
						<g>
							<path class="st7" d="M638.5,315.2c0.6,0,0.6-0.9,0-0.9C638,314.3,638,315.2,638.5,315.2L638.5,315.2z"/>
						</g>
						<g>
							<path class="st7" d="M649,310.2c0.6,0,0.6-0.9,0-0.9C648.5,309.4,648.5,310.2,649,310.2L649,310.2z"/>
						</g>
						<g>
							<path class="st7" d="M649,324.9c0.6,0,0.6-0.9,0-0.9C648.5,324.1,648.5,324.9,649,324.9L649,324.9z"/>
						</g>
						<g>
							<path class="st7" d="M647.9,341c0.6,0,0.6-0.9,0-0.9C647.3,340.2,647.3,341,647.9,341L647.9,341z"/>
						</g>
						<g>
							<path class="st7" d="M648.5,350.7c0.6,0,0.6-0.9,0-0.9C648,349.9,648,350.7,648.5,350.7L648.5,350.7z"/>
						</g>
						<g>
							<path class="st7" d="M660.3,356.4c0.6,0,0.6-0.9,0-0.9C659.8,355.6,659.8,356.4,660.3,356.4L660.3,356.4z"/>
						</g>
					</g>
					<g>
						<g>
							<path class="st19" d="M606,325c0.3,3.4,0.6,7,0.8,10.4c0.2,2.8,0.2,5.8,1.1,8.5c0.4,1.1,1,2.2,1.8,3.1c1,1,2.2,1.5,3.5,1.8
								c1.5,0.4,3.1,0.4,4.6,0.6c1.7,0.1,3.4,0.2,5.2,0.3c3.9,0.2,7.8,0.2,11.7,0.2c0.6,0,0.6-0.9,0-0.9c-6.5,0-13.1,0-19.6-0.8
								c-1.4-0.2-2.9-0.5-4.1-1.2c-1-0.7-1.7-1.7-2.1-2.9c-1-2.5-1-5.3-1.1-7.8c-0.3-3.7-0.6-7.4-0.9-11.3
								C606.9,324.5,606,324.5,606,325L606,325z"/>
						</g>
						<g>
							<path class="st19" d="M603.8,345.9c1.4,0,2.8,0.1,4.2,0.3c0.2,0,0.4-0.2,0.4-0.4c0-0.3-0.2-0.4-0.4-0.4
								c-1.4-0.2-2.8-0.3-4.2-0.3C603.3,345.1,603.3,345.9,603.8,345.9L603.8,345.9z"/>
						</g>
						<g>
							<path class="st19" d="M646,325.4c1.4,7,3,14,2.9,21.3c0,2.1-0.2,4.1-0.5,6.1c-0.1,0.5,0.8,0.8,0.8,0.2
								c1.1-7.3,0.2-14.6-1.1-21.8c-0.4-2-0.9-4.1-1.2-6.1C646.6,324.6,645.8,324.9,646,325.4L646,325.4z"/>
						</g>
					</g>
				</g>
			</g>
		</g>
		<g>
			<g>
				<path class="st8" d="M383.7,533.1c0,0-2.6,7.6-1.1,17.4c0,0-8.2,4.4-16.3-1.1c0,0,6.7-5.1,4.6-18.8"/>
				<path class="st12" d="M347.5,558.7c0.3-0.5,0.6-1,1.1-1.2c2.8-1.5,9.4-5.3,19.5-10.2c0,0,5.6,1.9,14.2,0.9c0,0,1,5.6,0.8,10.2
					C377.7,558.6,357.5,559.5,347.5,558.7z"/>
				<path class="st10" d="M383,558.4c0,1.1-0.1,2.3-0.2,3.2h-35.7V560c0-0.4,0.1-0.9,0.3-1.2C357.5,559.5,377.7,558.6,383,558.4z"/>
				<circle class="st10" cx="358.6" cy="553.2" r="0.7"/>
				<path class="st10" d="M364,551.2c0,0.4-0.3,0.7-0.7,0.7c-0.4,0-0.7-0.3-0.7-0.7c0-0.4,0.3-0.7,0.7-0.7
					C363.7,550.5,364,550.8,364,551.2z"/>
				<path class="st10" d="M368.7,548.7c0,0.4-0.3,0.7-0.7,0.7c-0.4,0-0.7-0.3-0.7-0.7c0-0.4,0.3-0.7,0.7-0.7
					C368.4,548,368.7,548.3,368.7,548.7z"/>
			</g>
			<g>
				<path class="st8" d="M418.7,531.3c0,0,0.8,13.8-1.1,20.1c0,0,8.2,4.4,16.3-1.1c0,0-5.7-2-3.1-24.2"/>
				<path class="st12" d="M452.6,559.6c-0.3-0.5-0.6-1-1.1-1.2c-2.8-1.5-9.4-5.3-19.5-10.2c0,0-5.6,1.9-14.2,0.9c0,0-1,5.6-0.8,10.2
					C422.2,559.5,442.5,560.3,452.6,559.6z"/>
				<path class="st10" d="M417,559.2c0,1.1,0.1,2.3,0.2,3.2h35.7v-1.7c0-0.4-0.1-0.9-0.3-1.2C442.5,560.3,422.2,559.5,417,559.2z"/>
				<path class="st10" d="M433.4,549.9c0,0.4-0.3,0.7-0.7,0.7c-0.4,0-0.7-0.3-0.7-0.7s0.3-0.7,0.7-0.7S433.4,549.6,433.4,549.9z"/>
				<path class="st10" d="M444.2,555.1c0,0.4-0.3,0.7-0.7,0.7c-0.4,0-0.7-0.3-0.7-0.7c0-0.4,0.3-0.7,0.7-0.7
					C443.9,554.4,444.2,554.7,444.2,555.1z"/>
				<path class="st10" d="M438.3,552.6c0,0.4-0.3,0.7-0.7,0.7c-0.4,0-0.7-0.3-0.7-0.7c0-0.4,0.3-0.7,0.7-0.7
					C438,552,438.3,552.3,438.3,552.6z"/>
			</g>
			<g>
				<g>
					<path class="st8" d="M408.5,256.7c1.7,6.7,0.3,13.8-2.7,20.1c-0.4,0.8-0.8,1.6-0.5,2.5c0.2,0.6,0.8,1,1.3,1.2
						c5.3,3,12,2.8,17.2-0.3c0.2-0.1,0.4-0.2,0.4-0.4c0.2-0.4-0.2-0.7-0.4-1c-1.4-1.5-0.7-3.4-1.3-5.4c-2.7-8.7-1.1-16.5,2-24.9"/>
				</g>
				<g>
					<path class="st11" d="M409.2,264.6c2.7-0.6,5.6-2.3,7.8-4c2.4-1.9,3.9-3.7,4.8-5.7c0.3-0.7,0.8-1.2,1.3-1.7
						c0.5-1.5,1-3.2,1.5-4.7l-16.2,8.2C409,258.7,409.2,262.5,409.2,264.6L409.2,264.6z"/>
				</g>
			</g>
			<g>
				<g>
					<path class="st8" d="M412.8,223.5c-1.8-0.3-3.6,0.4-5.2,1.3c-4,2.3-7.2,6.2-8.7,10.6c-0.6,1.8-0.9,3.6-1.1,5.4
						c-0.6,4.4-1.2,6-1.1,10.4c0.1,1.3,1.1,6.9,1.7,8.1c0.8,1.7,1.3,2,3.2,2.6s4.2,0.1,6-0.2c5.5-0.9,10.6-4.1,13.7-8.8
						c3.1-4.7,4.1-10.6,2.7-16"/>
				</g>
				<path class="st13" d="M438.1,227.1c-2.5,0.2-5,0.8-7.3,1.7c0.3-1,4.1-6.1,1.4-5.1c-0.3,1.4-4.7,6.6-2.4,6.7
					C431,228.9,440.7,228.6,438.1,227.1z"/>
				<g>
					<path class="st11" d="M414.5,252.3c-0.4,1.5-2.5,2.3-4.7,1.7c-2.2-0.6-3.7-2.2-3.3-3.7c0.4-1.5,2.5-2.3,4.7-1.7
						C413.4,249.2,414.9,250.9,414.5,252.3z"/>
					<g>
						<path class="st13" d="M407.6,241.8c2.3-0.1,5.2,0,6.4,1.2c0.6,0.7,1.3,0.5,0.8-0.2c-1.7-2.2-3.9-2.4-7.3-2.5
							c-0.4,0-0.7,0.4-0.6,0.8C407,241.5,407.3,241.9,407.6,241.8L407.6,241.8z"/>
					</g>
					<g>
						<path class="st13" d="M401.9,238.8c-1.2-0.8-2.4-1.4-3.4-1.7c-0.1,0.2-0.1,0.4-0.2,0.6c0,0.2,0,0.4-0.1,0.5
							c1,0.5,2,1.1,2.8,1.7c0.2,0.3,0.7,0.2,1-0.1C402.3,239.4,402.2,239,401.9,238.8z"/>
					</g>
					<path class="st13" d="M400.2,242.4c-0.1,0.6-0.5,1-0.9,0.9c-0.3-0.1-0.5-0.6-0.4-1.1c0.1-0.6,0.5-1,0.9-0.9
						C400.2,241.3,400.3,241.8,400.2,242.4z"/>
					<path class="st13" d="M409.7,245.6c-0.2,0.7-0.7,1.1-1.1,1c-0.5-0.1-0.7-0.8-0.6-1.3c0.2-0.7,0.7-1.1,1.1-1
						C409.7,244.3,409.9,245,409.7,245.6z"/>
					<path class="st14" d="M401.8,248.7c-0.4-0.2-0.7-0.5-0.9-0.8c1.3-0.8,2.3-2.2,2.6-3.7c0-0.2-0.1-0.4-0.3-0.5
						c-0.2-0.1-0.5,0.1-0.5,0.3c-0.2,1.5-1.2,2.9-2.6,3.5c-0.2,0.1-0.3,0.4-0.1,0.6c0.4,0.6,0.9,1.1,1.4,1.3
						C401.8,249.7,402.2,249,401.8,248.7z"/>
					<path class="st15" d="M399.3,252.1c0,0,1.8,1.6,4.5,1.2C403.8,253.3,399.6,255.5,399.3,252.1z"/>
				</g>
				<g>
					<path class="st13" d="M435.6,239.4c-0.3-4.1-0.7-7.7-4.3-9.7l-0.6-0.6c-0.4-2.5-1.9-4.8-3.8-6.4c-1.3-1.1-2.9-1.9-4.5-2.6
						c-7.7-2.8-18.4,0-24.5,2.1c0.5,0.8,1,1.5,1.4,2.2c-2.1,0.1-4.2-0.1-6.3-0.5c1,3.6,2.3,7.3,4.7,10.2c2.9,3.5,6.9,5,11.2,6.3
						c4.3,1.3,7,2.8,11.5,3.4c0.5,0.1-0.2,6.3,0.2,6.6c0.8,0.5,3.2-3.5,3.3-2.7c1.1,5-3.7,8.5-2.4,13.4c3.7-1.1,9.2-6.1,11.2-9.7
						C434.7,247.8,435.9,243.5,435.6,239.4z"/>
				</g>
				<g>
					<g>
						<path class="st8" d="M419.7,251.3c0.6-1.6,3-5.2,4.4-6.1c0.4-0.3,0.9-0.5,1.3-0.6c0.5-0.1,1.1,0.1,1.3,0.5
							c0.3,0.3,0.3,0.7,0.4,1.1c0.2,1.6-0.2,3.2-1.1,4.6c-0.9,1.3-2.2,2.4-3.7,2.9c-0.9,0.3-2,0.3-2.5-0.5
							C419.5,252.6,419.6,252,419.7,251.3"/>
					</g>
					<g>
						<path class="st11" d="M421.3,249.6c-0.1,0.4-0.1,0.7-0.1,1c0.1,0.3,0.3,0.5,0.6,0.6c0.3,0,0.8-0.1,1.1-0.3
							c0.4-0.2,0.7-0.6,0.9-0.9c0.4-0.6,0.7-1.2,0.5-1.7c-0.2-0.5-0.9-0.7-1.5-0.3c-0.4,0.2-0.8,0.7-1.1,1"/>
					</g>
				</g>
			</g>
			<g>
				<path class="st10" d="M431.6,347.3c0,0,11.7,18.1,13.2,39.3c1.5,21.1-3.2,156.2-3.2,156.2l-27.5,1c0,0,2.1-117.7-0.6-132.3
					l-26.1,131.3l-27.8-0.8c0,0,23.3-178.8,32.6-193.2L431.6,347.3z"/>
				<g class="st21">
					<path class="st7" d="M407.9,370c-0.6,3.7-0.9,7.5-0.8,11.4c0.1,3.3,0.5,6.9,2.5,9.6c1,1.3,2.3,2.4,3.8,3
						c0.2,0.1,0.5-0.1,0.5-0.3c2-7.4,1.1-15.2,2.4-22.6c0.1-0.5-0.7-0.8-0.8-0.2c-1.3,7.4-0.5,15.3-2.4,22.6
						c0.2-0.1,0.4-0.2,0.5-0.3c-2.8-1.1-4.5-3.8-5.2-6.6c-0.4-1.6-0.5-3.3-0.6-5c-0.1-1.8,0-3.5,0.1-5.3c0.1-2,0.3-4,0.7-6.1
						C408.8,369.7,407.9,369.4,407.9,370L407.9,370z"/>
				</g>
				<g class="st21">
					<path class="st7" d="M425.4,368.8c3.6,5.6,7.5,11.6,13.9,14.2c0.5,0.2,0.7-0.6,0.2-0.8c-6.2-2.6-10-8.4-13.5-13.8
						C425.9,367.9,425.1,368.3,425.4,368.8L425.4,368.8z"/>
				</g>
				<g class="st21">
					<path class="st7" d="M385.5,379.3c2.8-1.2,5-3.4,7-5.6c2.2-2.4,4.2-5,6-7.6c0.3-0.5-0.4-0.9-0.7-0.4c-1.7,2.7-3.7,5.2-5.8,7.5
						c-2,2.2-4.1,4.3-6.9,5.4C384.6,378.7,385,379.5,385.5,379.3L385.5,379.3z"/>
				</g>
				<g class="st21">
					<path class="st7" d="M415.4,416.9c2,15.9,3.4,31.8,4.4,47.8c1,15.9,1.4,31.8,1.4,47.7c0,9-0.2,18-0.5,26.8c0,0.6,0.8,0.6,0.9,0
						c0.6-15.9,0.7-32,0.2-47.9c-0.4-15.9-1.3-31.8-2.8-47.7c-0.8-8.9-1.7-17.9-2.9-26.7C416.1,416.4,415.3,416.4,415.4,416.9
						L415.4,416.9z"/>
				</g>
				<g class="st21">
					<path class="st7" d="M379.8,536.2c0.9-8.5,2.3-16.9,3.9-25.3c1.6-8.4,3.6-16.7,5.6-25c1.9-7.9,3.8-15.9,5.9-23.8
						c2-7.7,4.2-15.5,6.8-23c2.6-7.5,5.5-15.1,9.2-22.3c0.5-0.9,1-1.8,1.4-2.7c0.3-0.5-0.5-0.9-0.7-0.4c-3.7,7.1-6.9,14.5-9.6,22.1
						c-2.7,7.6-5,15.4-7.1,23.2c-2.1,7.9-4,15.9-5.9,23.8c-2,8.3-4,16.6-5.7,25c-1.7,8.3-3.2,16.8-4.2,25.2
						c-0.1,1.1-0.3,2.1-0.4,3.2C379,536.7,379.7,536.7,379.8,536.2L379.8,536.2z"/>
				</g>
			</g>
			<g>
				<g>
					<path class="st5" d="M393.1,276.1c-3.7,1.3-6.4,5.2-8.8,9.1c-4.1,6.8-7.6,14.2-10.6,22c-0.2,0.6-0.5,1.2-0.3,1.8
						c0.1,0.7,0.6,1.1,1.1,1.4c5.4,4.7,11,9.1,16.7,13.3c0.3,0.2,0.7,0.5,1,0.2c0.3-0.2,0.3-0.6,0.4-1c2.6-14.1,2.1-28.8,1.6-43.3"
						/>
				</g>
				<g>
					<path class="st5" d="M438.2,275.3c4.8,1.3,8.2,5.2,11.3,9.1c5.3,6.8,9.8,14.2,13.6,22c0.3,0.6,0.6,1.2,0.4,1.8
						c-0.2,0.7-0.8,1.1-1.3,1.4c-7,4.7-14.1,9.1-21.4,13.3c-0.4,0.2-0.9,0.5-1.2,0.2c-0.3-0.2-0.4-0.6-0.5-1
						c-3.3-14.1-2.7-28.8-2.1-43.3"/>
				</g>
				<g>
					<g>
						<g>
							<path class="st5" d="M408.1,270.6c2.9,1.1,8.8,1.7,11.7,0.6c0.7-0.3,1.4-0.6,2.1-0.6c0.6,0,1.1,0.2,1.6,0.3
								c4.5,1.3,9.1,2.7,13.6,4.1c0.7,0.2,1.3,0.4,1.7,1c0.4,0.5,0.5,1.2,0.6,1.8c0.5,4.5,1,9,1.4,13.5c0.4,3.9,0.9,7.9,0.9,11.8
								c0.1,3.9-0.3,7.9-0.5,11.8c-1,16.1-0.9,32.3-1.1,48.5c0,0.7-0.1,1.4-0.6,1.9c-0.3,0.2-0.7,0.3-1,0.3
								c-17.4,2.8-35.1,0.5-52.5-1.7c0.3-4.1,0.6-8.3,0.4-12.4c-0.2-3.8,0.7-19.1,0.4-23c-0.6-6.9-1.3-2.4-0.7-9.3
								c1.3-13,2.7-26.1,4-39.1c0.1-1,0.2-2,0.8-2.8c0.6-0.9,1.5-1.3,2.5-1.7C398.2,273.4,403,271.8,408.1,270.6"/>
						</g>
						<g class="st21">
							<path class="st22" d="M440.3,339.3c-1,4.6-2.1,9.6-4.8,13.5c-4.5,6.6-13.9,7.2-21.3,7.5s-17.7,1.1-23.5-4.2
								c-1.9-1.8-3.3-3.9-4.3-6.2c0,0.6,0,1.1,0,1.4c0.2,4.1-0.1,8.3-0.4,12.4c17.5,2.3,35.1,4.5,52.5,1.7c0.4-0.1,0.7-0.1,1-0.3
								c0.6-0.4,0.6-1.1,0.6-1.9c0.1-8.1,0.1-16.1,0.2-24.3C440.3,339.2,440.3,339.3,440.3,339.3z"/>
						</g>
						<g class="st21">
							<path class="st22" d="M463,306.3c-3.2-6.7-7.1-13.1-11.5-19.1c1.2,4.1,1.8,8.5,2,12.7c0.5,8.3-5.2,15.3-10.5,21.5
								c6.4-3.7,12.8-7.6,19-11.8c0.6-0.4,1.1-0.8,1.3-1.4C463.6,307.5,463.3,306.9,463,306.3z"/>
						</g>
					</g>
					<g>
						<path class="st22" d="M377.2,308.2c0.7-1.6,1.4-3.2,2.2-4.9c0.3-0.5-0.5-0.9-0.7-0.4c-0.9,1.6-1.6,3.3-2.3,5.1
							c-0.1,0.2,0.1,0.5,0.3,0.5C376.9,308.5,377.1,308.4,377.2,308.2L377.2,308.2z"/>
					</g>
					<g>
						<g>
							<path class="st22" d="M439,314.8c1.1,1.9,1.9,3.9,2.8,5.9c0.1,0.2,0.4,0.3,0.6,0.2c0.2-0.1,0.2-0.4,0.2-0.6
								c-0.9-2-1.8-4-2.8-5.9C439.4,313.9,438.7,314.3,439,314.8L439,314.8z"/>
						</g>
						<g>
							<path class="st22" d="M443.1,312.1c1.1,1.8,2.1,3.7,3.1,5.7c0.2,0.5,1,0.1,0.7-0.4c-0.9-2-1.9-3.9-3.1-5.7
								C443.5,311.3,442.8,311.7,443.1,312.1L443.1,312.1z"/>
						</g>
						<g>
							<path class="st22" d="M447.6,308.7c0.7,2,1.5,3.9,2.6,5.7c0.3,0.5,1,0.1,0.7-0.4c-1-1.8-1.8-3.6-2.5-5.5
								C448.2,308,447.5,308.2,447.6,308.7L447.6,308.7z"/>
						</g>
						<g>
							<path class="st22" d="M451.8,306.2c1,1.6,1.8,3.2,2.6,5c0.1,0.2,0.4,0.3,0.6,0.2c0.2-0.1,0.3-0.4,0.2-0.6
								c-0.8-1.7-1.6-3.3-2.6-5C452.1,305.3,451.5,305.7,451.8,306.2L451.8,306.2z"/>
						</g>
						<g>
							<path class="st22" d="M456.9,303.5c0.9,1.4,1.6,3,2.3,4.6c0.1,0.2,0.3,0.4,0.5,0.3c0.2-0.1,0.4-0.3,0.3-0.5
								c-0.7-1.6-1.4-3.2-2.4-4.8C457.3,302.7,456.6,303.1,456.9,303.5L456.9,303.5z"/>
						</g>
					</g>
					<g>
						<g>
							<path class="st22" d="M389.3,355.7c-0.2,2.2-0.5,4.4-0.7,6.7c-0.1,0.6,0.8,0.5,0.9,0c0.2-2.2,0.5-4.4,0.7-6.7
								C390.2,355.1,389.4,355.2,389.3,355.7L389.3,355.7z"/>
						</g>
						<g>
							<path class="st22" d="M394.9,362.6c0.4-2.3,0.6-4.6,0.7-6.9c0-0.6-0.9-0.6-0.9,0c0,2.2-0.3,4.5-0.7,6.7
								C394.1,362.8,394.8,363.1,394.9,362.6L394.9,362.6z"/>
						</g>
						<g>
							<path class="st22" d="M400.8,363c0.2-2.5,0.3-5,0.5-7.4c0-0.6-0.8-0.6-0.9,0c-0.2,2.5-0.3,5-0.5,7.4
								C399.9,363.6,400.8,363.6,400.8,363L400.8,363z"/>
						</g>
						<g>
							<path class="st22" d="M407.9,363.5c-0.2-2.5,0-5.1,0.6-7.5c0.1-0.5-0.7-0.8-0.8-0.2c-0.6,2.6-0.9,5.2-0.6,7.7
								C407.1,364.1,407.9,364.1,407.9,363.5L407.9,363.5z"/>
						</g>
						<g>
							<path class="st22" d="M414.1,364.4c0.1-2.7,0.1-5.3,0-8c0-0.6-0.9-0.6-0.9,0c0.1,2.7,0.1,5.3,0,8
								C413.3,364.9,414.1,364.9,414.1,364.4L414.1,364.4z"/>
						</g>
						<g>
							<path class="st22" d="M421.4,364.1c0.3-2.3,0.4-4.7,0.3-7c0-0.6-0.9-0.6-0.9,0c0.1,2.4,0,4.7-0.3,7c0,0.2,0.2,0.4,0.4,0.4
								C421.3,364.5,421.4,364.3,421.4,364.1L421.4,364.1z"/>
						</g>
						<g>
							<path class="st22" d="M427.5,364.7c0.2-2.6,0.4-5.2,0.5-7.7c0-0.6-0.8-0.6-0.9,0c-0.2,2.6-0.4,5.2-0.5,7.7
								C426.5,365.2,427.4,365.2,427.5,364.7L427.5,364.7z"/>
						</g>
						<g>
							<path class="st22" d="M433.8,357c0,2.3,0,4.6,0,6.9c0,0.5,0.9,0.5,0.9,0c0-2.3,0-4.6,0-6.9
								C434.7,356.5,433.8,356.5,433.8,357L433.8,357z"/>
						</g>
					</g>
					<g>
						<g>
							<path class="st22" d="M405.1,276.2c1-1.1,1.8-2.2,2.7-3.4c0.1-0.2,0-0.5-0.2-0.6c-0.2-0.1-0.5,0-0.6,0.2
								c-0.8,1.1-1.6,2.2-2.5,3.2c-0.2,0.2-0.2,0.4,0,0.6C404.8,276.3,405.1,276.3,405.1,276.2L405.1,276.2z"/>
						</g>
						<g>
							<path class="st22" d="M410.4,274.5c-0.2,1.3-0.3,2.7-0.5,4c0,0.2,0.2,0.4,0.4,0.4c0.3,0,0.4-0.2,0.4-0.4
								c0.2-1.3,0.3-2.7,0.5-4c0-0.2-0.2-0.4-0.4-0.4C410.5,274.1,410.4,274.3,410.4,274.5L410.4,274.5z"/>
						</g>
						<g>
							<path class="st22" d="M414.7,275c0.3,1.3,0.4,2.7,0.4,4.1c0,0.6,0.9,0.6,0.9,0c0-1.4-0.2-2.9-0.5-4.3c0-0.2-0.3-0.4-0.5-0.3
								C414.8,274.6,414.7,274.8,414.7,275L414.7,275z"/>
						</g>
						<g>
							<path class="st22" d="M418.9,274c0.8,1.2,1.4,2.5,1.9,3.8c0.1,0.2,0.3,0.4,0.5,0.3c0.2-0.1,0.4-0.3,0.3-0.5
								c-0.6-1.4-1.2-2.8-2-4C419.4,273.2,418.6,273.5,418.9,274L418.9,274z"/>
						</g>
						<g>
							<path class="st22" d="M422.6,272.3c1.4,1,2.9,2.1,4,3.4c0.4,0.4,1-0.2,0.6-0.6c-1.2-1.3-2.7-2.6-4.2-3.5
								C422.5,271.3,422.1,272,422.6,272.3L422.6,272.3z"/>
						</g>
					</g>
				</g>
			</g>
			<g>
				<path class="st8" d="M390.9,279.2c2.1-8.6,3.9-14.1,8.5-21.8c0.5-0.8,1.3-1.6,2.1-1.1c0.6,0.4,0.5,1.2,0.3,1.9
					c-0.6,2.1-1.1,4.1-1.7,6.2c-0.1,0.5-0.3,1.1-0.2,1.5c0.2,1.4,1.7,2.2,3.1,2.8c1.2,0.7,2.7,1.8,2.3,3.2c-0.2,0.6-0.6,1.1-1.1,1.4
					c-3.2,3.3-4.9,7.8-5.7,12.3c-0.9,4.5-3.2,15.4-3.7,19.9c-1.5,11.5-3.9,20-11.4,25.7c-1,0.8-2.5,1.1-3.6,0.7
					c-0.5-0.2-0.9-0.6-1.1-1c-2.8-3.2-3.6-7.8-3.3-12c0.4-4.3,1.9-8.3,3.4-12.3C381.7,299.2,387.1,289.5,390.9,279.2"/>
			</g>
			<g>
				<path class="st8" d="M464.4,333.7c-1.7-7.2-4.1-14.2-7.2-20.9l-12.8,7.9c1.8,3.9,3.4,7.8,5,11.8c0.7,1.8,1.3,3.7,1.1,5.6
					c-0.2,1.4-1,2.8-1.7,4.1c-5.4,9.6-11.7,18.6-18.6,27.2c-0.4,0.5-0.9,1.1-0.8,1.7c0,0.5,0.3,0.9,0.6,1.3c1.1,1.7,2.3,3.3,3.4,5.1
					c0.2,0.3,0.5,0.6,0.8,0.7c0.4,0,0.6-0.3,0.9-0.5c5.5-6.5,11.1-13,16.7-19.4c4.1-4.8,8.2-9.6,11.3-15c0.9-1.6,1.7-3.3,1.8-5.3
					C464.9,336.5,464.7,335.1,464.4,333.7z"/>
			</g>
		</g>
	</g>
</g>
</svg>
